<svg xmlns="http://www.w3.org/2000/svg" xmlns:xlink="http://www.w3.org/1999/xlink" viewBox="0 0 158.11 43.72"><defs><style>.cls-1{font-size:19.35px;font-family:Roboto-Regular, Roboto;}.cls-1,.cls-5{fill:#fff;}.cls-2{font-size:17.54px;fill:#36a9e1;font-family:Roboto-Bold, Roboto;font-weight:700;}.cls-3{letter-spacing:-0.01em;}.cls-4{letter-spacing:0em;}.cls-6{fill:url(#AzzurroLogo);}</style><linearGradient id="AzzurroLogo" y1="42.06" x2="158.11" y2="42.06" gradientUnits="userSpaceOnUse"><stop offset="0" stop-color="#52c0d6"/><stop offset="0.99" stop-color="#69c7e7"/></linearGradient></defs><title>Risorsa 2</title><g id="Livello_2" data-name="Livello 2"><g id="Livello_2-2" data-name="Livello 2"><text class="cls-1" transform="translate(58.62 19.06)">Mancini</text><text class="cls-2" transform="translate(50.06 35.54)">&lt;D<tspan class="cls-3" x="20.32" y="0">ev</tspan><tspan class="cls-4" x="38.44" y="0">eloper/&gt;</tspan></text><path class="cls-5" d="M42.69,32.11H3.86A3.86,3.86,0,0,1,0,28.25V3.86A3.86,3.86,0,0,1,3.86,0H42.69a3.86,3.86,0,0,1,3.87,3.86V28.25A3.86,3.86,0,0,1,42.69,32.11ZM40.22,2.36H6.34A3.86,3.86,0,0,0,2.48,6.23V25.89a3.86,3.86,0,0,0,3.86,3.86H40.22a3.86,3.86,0,0,0,3.86-3.86V6.23A3.86,3.86,0,0,0,40.22,2.36Z"/><rect class="cls-5" y="34.7" width="46.56" height="3.32" rx="1.66"/><rect class="cls-6" y="40.39" width="158.11" height="3.32" rx="1.66"/></g></g></svg>